<svg width="30" height="30" viewBox="0 0 30 30" fill="none" xmlns="http://www.w3.org/2000/svg">
<g clip-path="url(#clip0_11_11)">
<path d="M26.25 7.5V9.375C26.25 9.72018 25.9702 10 25.625 10H24.375C24.0298 10 23.75 9.72018 23.75 9.375V7.5C23.75 6.80964 23.1904 6.25 22.5 6.25H20.625C20.2798 6.25 20 5.97018 20 5.625V4.375C20 4.02982 20.2798 3.75 20.625 3.75H22.5C24.5711 3.75 26.25 5.42893 26.25 7.5ZM9.375 23.75H7.5C6.80964 23.75 6.25 23.1904 6.25 22.5V20.625C6.25 20.2798 5.97018 20 5.625 20H4.375C4.02982 20 3.75 20.2798 3.75 20.625V22.5C3.75 24.5711 5.42893 26.25 7.5 26.25H9.375C9.72018 26.25 10 25.9702 10 25.625V24.375C10 24.0298 9.72018 23.75 9.375 23.75ZM4.375 10H5.625C5.97018 10 6.25 9.72018 6.25 9.375V7.5C6.25 6.80964 6.80964 6.25 7.5 6.25H9.375C9.72018 6.25 10 5.97018 10 5.625V4.375C10 4.02982 9.72018 3.75 9.375 3.75H7.5C5.42893 3.75 3.75 5.42893 3.75 7.5V9.375C3.75 9.72018 4.02982 10 4.375 10ZM25.625 20H24.375C24.0298 20 23.75 20.2798 23.75 20.625V22.5C23.75 23.1904 23.1904 23.75 22.5 23.75H20.625C20.2798 23.75 20 24.0298 20 24.375V25.625C20 25.9702 20.2798 26.25 20.625 26.25H22.5C24.5711 26.25 26.25 24.5711 26.25 22.5V20.625C26.25 20.2798 25.9702 20 25.625 20ZM11.25 13.125V10.625C11.25 10.2798 10.9702 10 10.625 10H9.375C9.02982 10 8.75 10.2798 8.75 10.625V13.125C8.75 13.4702 9.02982 13.75 9.375 13.75H10.625C10.9702 13.75 11.25 13.4702 11.25 13.125ZM21.25 13.125V10.625C21.25 10.2798 20.9702 10 20.625 10H19.375C19.0298 10 18.75 10.2798 18.75 10.625V13.125C18.75 13.4702 19.0298 13.75 19.375 13.75H20.625C20.9702 13.75 21.25 13.4702 21.25 13.125ZM13.125 17.5C14.8509 17.5 16.25 16.1009 16.25 14.375V10.625C16.25 10.2798 15.9702 10 15.625 10H14.375C14.0298 10 13.75 10.2798 13.75 10.625V14.375C13.75 14.7202 13.4702 15 13.125 15C12.7798 15 12.5 15.2798 12.5 15.625V16.875C12.5 17.2202 12.7798 17.5 13.125 17.5ZM18.35 19.4625C18.1463 19.2105 17.786 19.1513 17.5125 19.325C15.9583 20.1907 14.0667 20.1907 12.5125 19.325C12.239 19.1513 11.8787 19.2105 11.675 19.4625L10.925 20.475C10.815 20.6093 10.7671 20.784 10.7934 20.9556C10.8196 21.1272 10.9174 21.2797 11.0625 21.375C12.2452 22.108 13.6086 22.4975 15 22.5C16.3964 22.5052 17.7659 22.1152 18.95 21.375C19.097 21.2817 19.1974 21.1303 19.226 20.9585C19.2547 20.7867 19.2088 20.6109 19.1 20.475L18.35 19.4625Z" fill="white"/>
<rect x="7.5" y="7.5" width="15" height="15" fill="#333333"/>
<line x1="8.41421" y1="8" x2="22" y2="21.5858" stroke="white" stroke-width="2" stroke-linecap="round"/>
<line x1="8" y1="21.5858" x2="21.5858" y2="8" stroke="white" stroke-width="2" stroke-linecap="round"/>
</g>
<defs>
<clipPath id="clip0_11_11">
<rect width="30" height="30" fill="white"/>
</clipPath>
</defs>
</svg>
