<svg width="21" height="34" viewBox="0 0 21 34" fill="none" xmlns="http://www.w3.org/2000/svg">
<path d="M6.20236 2.70735C5.99938 2.2668 5.84323 1.89146 5.72714 1.5759C7.10777 2.65433 9.25967 4.95779 11.4786 7.91019C13.913 11.1493 16.3364 15.0476 17.8171 18.7116C18.5573 20.5434 19.0474 22.2814 19.2006 23.8267C19.3539 25.3742 19.1635 26.6621 18.6192 27.6616C17.0666 30.5125 13.5537 32.1997 9.93925 32.28C6.33435 32.36 2.99531 30.8429 1.63399 27.7383C0.751775 25.7263 0.876729 24.0678 1.48087 22.474C2.01206 21.0727 2.8945 19.7539 3.88339 18.276C4.07656 17.9873 4.27381 17.6925 4.47328 17.3899C5.65863 15.5915 6.87563 13.5724 7.39248 11.1662C7.91692 8.72462 7.7053 5.96921 6.20236 2.70735Z" stroke="#5465FF" stroke-width="2"/>
</svg>
