<svg width="39" height="24" viewBox="0 0 39 24" fill="none" xmlns="http://www.w3.org/2000/svg">
<rect x="0.5" y="0.5" width="38" height="20.5172" rx="1.5" stroke="#5465FF"/>
<path d="M26.5532 0.827637V20.6897" stroke="#5465FF"/>
<line x1="28.7129" y1="2.8103" x2="36.0108" y2="2.8103" stroke="#5465FF" stroke-linecap="round"/>
<line x1="28.7129" y1="5.29309" x2="36.0108" y2="5.29309" stroke="#5465FF" stroke-linecap="round"/>
<line x1="28.7129" y1="7.77588" x2="36.0108" y2="7.77588" stroke="#5465FF" stroke-linecap="round"/>
<path d="M28.7129 11.1034C28.7129 10.275 29.3845 9.60339 30.2129 9.60339H34.5108C35.3392 9.60339 36.0108 10.275 36.0108 11.1034V16.2068C36.0108 17.0353 35.3392 17.7068 34.5108 17.7068H30.2129C29.3845 17.7068 28.7129 17.0353 28.7129 16.2068V11.1034Z" stroke="#5465FF"/>
<path d="M20.2448 10.7586C20.2448 14.5948 17.1263 17.7069 13.2767 17.7069C9.42706 17.7069 6.30859 14.5948 6.30859 10.7586C6.30859 6.9224 9.42706 3.8103 13.2767 3.8103C17.1263 3.8103 20.2448 6.9224 20.2448 10.7586Z" stroke="#5465FF"/>
<path d="M17.7553 10.7586C17.7553 13.2236 15.7514 15.2241 13.2766 15.2241C10.8018 15.2241 8.79785 13.2236 8.79785 10.7586C8.79785 8.29362 10.8018 6.29309 13.2766 6.29309C15.7514 6.29309 17.7553 8.29362 17.7553 10.7586Z" stroke="#5465FF"/>
<path d="M15.2658 10.7586C15.2658 11.8524 14.3764 12.7414 13.2765 12.7414C12.1765 12.7414 11.2871 11.8524 11.2871 10.7586C11.2871 9.66484 12.1765 8.77588 13.2765 8.77588C14.3764 8.77588 15.2658 9.66484 15.2658 10.7586Z" stroke="#5465FF"/>
<path d="M9.95743 4.96563L12.4469 9.10351" stroke="#5465FF"/>
<path d="M13.7529 12.9724L16.5957 16.9655" stroke="#5465FF"/>
<path d="M19.085 7.03445L14.857 9.94287" stroke="#5465FF"/>
<path d="M11.2983 11.2864L7.0536 13.6554" stroke="#5465FF"/>
<rect x="3.81934" y="21.1897" width="3.97872" height="2.31034" rx="0.5" stroke="#5465FF"/>
<rect x="29.5425" y="21.1897" width="3.97872" height="2.31034" rx="0.5" stroke="#5465FF"/>
</svg>
