<svg width="55" height="34" viewBox="0 0 55 34" fill="none" xmlns="http://www.w3.org/2000/svg">
<path d="M0.971187 34V0.399998H15.5152C18.5232 0.399998 21.1152 0.895998 23.2912 1.888C25.4672 2.848 27.1472 4.24 28.3312 6.064C29.5152 7.888 30.1072 10.064 30.1072 12.592C30.1072 15.088 29.5152 17.248 28.3312 19.072C27.1472 20.864 25.4672 22.24 23.2912 23.2C21.1152 24.16 18.5232 24.64 15.5152 24.64H5.29119L8.74719 21.232V34H0.971187ZM22.3312 34L13.9312 21.808H22.2352L30.7312 34H22.3312ZM8.74719 22.096L5.29119 18.448H15.0832C17.4832 18.448 19.2752 17.936 20.4592 16.912C21.6432 15.856 22.2352 14.416 22.2352 12.592C22.2352 10.736 21.6432 9.296 20.4592 8.272C19.2752 7.248 17.4832 6.736 15.0832 6.736H5.29119L8.74719 3.04V22.096Z" fill="#5465FF"/>
<path d="M30.0281 34V0.399998H37.8041V27.664H54.6521V34H30.0281Z" fill="white"/>
</svg>
