<svg width="479" height="56" viewBox="0 0 479 56" fill="none" xmlns="http://www.w3.org/2000/svg">
<path d="M12.4065 28C-33.0122 -5.33333 103.244 -5.33333 57.8252 28C12.4065 61.3333 148.663 61.3333 103.244 28C57.8252 -5.33333 194.081 -5.33333 148.663 28C103.244 61.3333 239.5 61.3333 194.081 28C148.663 -5.33333 284.919 -5.33333 239.5 28C194.081 61.3333 330.337 61.3333 284.919 28C239.5 -5.33333 375.756 -5.33333 330.337 28C284.919 61.3333 421.175 61.3333 375.756 28C330.337 -5.33333 466.594 -5.33333 421.175 28C375.756 61.3333 512.012 61.3333 466.594 28" stroke="#F24C4C" stroke-width="5"/>
</svg>
